<svg version="1.1" xmlns="http://www.w3.org/2000/svg" xmlns:xlink="http://www.w3.org/1999/xlink" viewBox="0 0 172 172"><g fill="none" fill-rule="nonzero" stroke="none" stroke-width="1" stroke-linecap="butt" stroke-linejoin="miter" stroke-miterlimit="10" stroke-dasharray="" stroke-dashoffset="0" font-family="none" font-weight="none" font-size="none" text-anchor="none" style="mix-blend-mode: normal"><path d="M0,172v-172h172v172z" fill="none"></path><g fill="#3498db"><path d="M131.96744,14.33333c-1.83376,0 -3.66956,0.69853 -5.06706,2.09961l-12.23372,12.23372l28.66667,28.66667l12.23372,-12.23372c2.80217,-2.80217 2.80217,-7.33911 0,-10.13412l-18.53255,-18.53255c-1.40108,-1.40108 -3.23329,-2.09961 -5.06706,-2.09961zM103.91667,39.41667l-68.08333,68.08333c0,0 7.2025,0.03583 10.75,3.58333c3.5475,3.5475 3.47135,10.63802 3.47135,10.63802c0,0 7.30731,0.14065 10.86198,3.69531c3.55467,3.55467 3.58333,10.75 3.58333,10.75l68.08333,-68.08333zM26.30111,121.83333l-4.80111,28.66667l28.66667,-4.80111z"></path></g></g></svg>